<svg width="24" height="19" viewBox="0 0 24 19" fill="none" xmlns="http://www.w3.org/2000/svg">
<g clip-path="url(#clip0_180_671)">
<path d="M23.351 7.96146L12.649 18.649C12.4663 18.8317 12.25 18.923 12 18.923C11.75 18.923 11.5337 18.8317 11.351 18.649L0.649038 7.96146C0.466346 7.77877 0.375 7.56002 0.375 7.30521C0.375 7.05041 0.466346 6.83166 0.649038 6.64896L3.04327 4.26916C3.22596 4.08646 3.44231 3.99512 3.69231 3.99512C3.94231 3.99512 4.15865 4.08646 4.34135 4.26916L12 11.9278L19.6587 4.26916C19.8413 4.08646 20.0577 3.99512 20.3077 3.99512C20.5577 3.99512 20.774 4.08646 20.9567 4.26916L23.351 6.64896C23.5337 6.83166 23.625 7.05041 23.625 7.30521C23.625 7.56002 23.5337 7.77877 23.351 7.96146Z"/>
</g>
<defs>
<clipPath id="clip0_180_671">
<rect width="24" height="18.9231" fill="white"/>
</clipPath>
</defs>
</svg>
