<svg width="25" height="24" viewBox="0 0 25 24" fill="none" xmlns="http://www.w3.org/2000/svg">
<path d="M12.6965 2C15.4135 2 15.7525 2.01 16.8185 2.06C17.8835 2.11 18.6085 2.277 19.2465 2.525C19.9065 2.779 20.4625 3.123 21.0185 3.678C21.527 4.1779 21.9205 4.78259 22.1715 5.45C22.4185 6.087 22.5865 6.813 22.6365 7.878C22.6835 8.944 22.6965 9.283 22.6965 12C22.6965 14.717 22.6865 15.056 22.6365 16.122C22.5865 17.187 22.4185 17.912 22.1715 18.55C21.9212 19.2178 21.5277 19.8226 21.0185 20.322C20.5185 20.8303 19.9138 21.2238 19.2465 21.475C18.6095 21.722 17.8835 21.89 16.8185 21.94C15.7525 21.987 15.4135 22 12.6965 22C9.97953 22 9.64053 21.99 8.57453 21.94C7.50953 21.89 6.78453 21.722 6.14653 21.475C5.47886 21.2245 4.87406 20.8309 4.37453 20.322C3.86594 19.8222 3.47246 19.2175 3.22153 18.55C2.97353 17.913 2.80653 17.187 2.75653 16.122C2.70953 15.056 2.69653 14.717 2.69653 12C2.69653 9.283 2.70653 8.944 2.75653 7.878C2.80653 6.812 2.97353 6.088 3.22153 5.45C3.47177 4.78218 3.86534 4.17732 4.37453 3.678C4.8742 3.16923 5.47896 2.77573 6.14653 2.525C6.78453 2.277 7.50853 2.11 8.57453 2.06C9.64053 2.013 9.97953 2 12.6965 2ZM12.6965 7C11.3705 7 10.0987 7.52678 9.161 8.46447C8.22332 9.40215 7.69653 10.6739 7.69653 12C7.69653 13.3261 8.22332 14.5979 9.161 15.5355C10.0987 16.4732 11.3705 17 12.6965 17C14.0226 17 15.2944 16.4732 16.2321 15.5355C17.1697 14.5979 17.6965 13.3261 17.6965 12C17.6965 10.6739 17.1697 9.40215 16.2321 8.46447C15.2944 7.52678 14.0226 7 12.6965 7V7ZM19.1965 6.75C19.1965 6.41848 19.0648 6.10054 18.8304 5.86612C18.596 5.6317 18.2781 5.5 17.9465 5.5C17.615 5.5 17.2971 5.6317 17.0626 5.86612C16.8282 6.10054 16.6965 6.41848 16.6965 6.75C16.6965 7.08152 16.8282 7.39946 17.0626 7.63388C17.2971 7.8683 17.615 8 17.9465 8C18.2781 8 18.596 7.8683 18.8304 7.63388C19.0648 7.39946 19.1965 7.08152 19.1965 6.75ZM12.6965 9C13.4922 9 14.2552 9.31607 14.8179 9.87868C15.3805 10.4413 15.6965 11.2044 15.6965 12C15.6965 12.7956 15.3805 13.5587 14.8179 14.1213C14.2552 14.6839 13.4922 15 12.6965 15C11.9009 15 11.1378 14.6839 10.5752 14.1213C10.0126 13.5587 9.69653 12.7956 9.69653 12C9.69653 11.2044 10.0126 10.4413 10.5752 9.87868C11.1378 9.31607 11.9009 9 12.6965 9V9Z"/>
</svg>
