<svg width="25" height="24" viewBox="0 0 25 24" fill="none" xmlns="http://www.w3.org/2000/svg">
<path d="M22.5447 6C21.8086 6.35 21.0151 6.58 20.1929 6.69C21.0342 6.16 21.6843 5.32 21.9902 4.31C21.1967 4.81 20.3172 5.16 19.3899 5.36C18.6346 4.5 17.5734 4 16.3688 4C14.1222 4 12.2866 5.92 12.2866 8.29C12.2866 8.63 12.3249 8.96 12.3918 9.27C8.98833 9.09 5.95774 7.38 3.94053 4.79C3.5868 5.42 3.38604 6.16 3.38604 6.94C3.38604 8.43 4.10306 9.75 5.21204 10.5C4.53327 10.5 3.90229 10.3 3.3478 10V10.03C3.3478 12.11 4.76271 13.85 6.63652 14.24C6.03492 14.4122 5.40334 14.4362 4.79139 14.31C5.05106 15.1625 5.55959 15.9084 6.24552 16.4429C6.93145 16.9775 7.76027 17.2737 8.61548 17.29C7.1658 18.4904 5.36883 19.1393 3.51988 19.13C3.19483 19.13 2.86979 19.11 2.54474 19.07C4.36118 20.29 6.52179 21 8.83537 21C16.3688 21 20.5084 14.46 20.5084 8.79C20.5084 8.6 20.5084 8.42 20.4989 8.23C21.3019 7.63 21.9902 6.87 22.5447 6V6Z" />
</svg>
